<svg xmlns="http://www.w3.org/2000/svg" viewBox="0 0 477.867 477.867" xmlns:v="https://vecta.io/nano"><path d="M460.8 221.867H185.3c-9.255-36.364-46.237-58.34-82.602-49.085-24.116 6.138-42.947 24.97-49.085 49.085H17.067A17.07 17.07 0 0 0 0 238.934 17.07 17.07 0 0 0 17.067 256h36.557c9.255 36.364 46.237 58.34 82.602 49.085 24.116-6.138 42.947-24.97 49.085-49.085H460.8a17.07 17.07 0 0 0 17.067-17.067 17.07 17.07 0 0 0-17.067-17.066zm-341.333 51.2c-18.85 0-34.133-15.282-34.133-34.133s15.282-34.133 34.133-34.133 34.133 15.282 34.133 34.133-15.282 34.133-34.133 34.133zM460.8 51.2h-53.623c-9.255-36.364-46.237-58.34-82.602-49.085C300.46 8.253 281.628 27.084 275.5 51.2H17.067A17.07 17.07 0 0 0 0 68.267a17.07 17.07 0 0 0 17.067 17.067H275.5c9.255 36.364 46.237 58.34 82.602 49.085 24.116-6.138 42.947-24.97 49.085-49.085H460.8a17.07 17.07 0 0 0 17.067-17.067A17.07 17.07 0 0 0 460.8 51.2zm-119.466 51.2c-18.85 0-34.133-15.282-34.133-34.133s15.282-34.133 34.133-34.133 34.133 15.282 34.133 34.133-15.282 34.133-34.133 34.133zM460.8 392.534h-87.757c-9.255-36.364-46.237-58.34-82.602-49.085-24.116 6.138-42.947 24.97-49.085 49.085H17.067A17.07 17.07 0 0 0 0 409.6a17.07 17.07 0 0 0 17.067 17.067h224.3c9.255 36.364 46.237 58.34 82.602 49.085 24.116-6.138 42.947-24.97 49.085-49.085H460.8a17.07 17.07 0 0 0 17.067-17.067 17.07 17.07 0 0 0-17.067-17.066zm-153.6 51.2c-18.85 0-34.133-15.282-34.133-34.133s15.282-34.133 34.133-34.133 34.133 15.282 34.133 34.133-15.28 34.133-34.133 34.133z"/></svg>